<?xml version="1.0" encoding="UTF-8" standalone="no"?>
<!DOCTYPE svg PUBLIC "-//W3C//DTD SVG 1.1//EN"
 "http://www.w3.org/Graphics/SVG/1.1/DTD/svg11.dtd">
<!-- Generated by graphviz version 2.43.0 (0)
 -->
<!-- Title: SAR_Architecture Pages: 1 -->
<svg width="1286pt" height="668pt"
 viewBox="0.00 0.00 1286.00 667.62" xmlns="http://www.w3.org/2000/svg" xmlns:xlink="http://www.w3.org/1999/xlink">
<g id="graph0" class="graph" transform="scale(1 1) rotate(0) translate(4 663.62)">
<title>SAR_Architecture</title>
<polygon fill="#ffffff" stroke="transparent" points="-4,4 -4,-663.62 1282,-663.62 1282,4 -4,4"/>
<text text-anchor="start" x="458.5" y="-643.83" font-family="Arial" font-weight="bold" font-size="16.00">SAR Water Detection Lab &#45; System Architecture</text>
<g id="clust1" class="cluster">
<title>cluster_ui</title>
<polygon fill="#e3f2fd" stroke="#2196f3" points="322,-434.62 322,-625.62 731,-625.62 731,-434.62 322,-434.62"/>
<text text-anchor="start" x="476" y="-613.02" font-family="Arial" font-weight="bold" font-size="12.00">Streamlit UI Layer</text>
</g>
<g id="clust2" class="cluster">
<title>cluster_ui_components</title>
</g>
<g id="clust3" class="cluster">
<title>cluster_core</title>
<polygon fill="#fff3e0" stroke="#ff9800" points="8,-166.62 8,-405.62 734,-405.62 734,-166.62 8,-166.62"/>
<text text-anchor="start" x="301" y="-393.02" font-family="Arial" font-weight="bold" font-size="12.00">Core Processing Engine</text>
</g>
<g id="clust4" class="cluster">
<title>cluster_algorithms</title>
<polygon fill="#fce4ec" stroke="#ff9800" points="16,-174.62 16,-274.62 726,-274.62 726,-174.62 16,-174.62"/>
<text text-anchor="middle" x="371" y="-261.02" font-family="Arial" font-size="12.00">Algorithm Categories</text>
</g>
<g id="clust5" class="cluster">
<title>cluster_modules</title>
<polygon fill="#fff9c4" stroke="#ff9800" points="380,-303.62 380,-376.62 726,-376.62 726,-303.62 380,-303.62"/>
<text text-anchor="middle" x="553" y="-363.02" font-family="Arial" font-size="12.00">Support Modules</text>
</g>
<g id="clust6" class="cluster">
<title>cluster_data</title>
<polygon fill="#f1f8e9" stroke="#8bc34a" points="742,-8 742,-261.12 1150,-261.12 1150,-8 742,-8"/>
<text text-anchor="start" x="915" y="-248.53" font-family="Arial" font-weight="bold" font-size="12.00">Data Layer</text>
</g>
<g id="clust7" class="cluster">
<title>cluster_data_sources</title>
<polygon fill="#dcedc8" stroke="#8bc34a" points="750,-16 750,-139.62 1142,-139.62 1142,-16 750,-16"/>
<text text-anchor="middle" x="946" y="-126.03" font-family="Arial" font-size="12.00">Data Sources</text>
</g>
<g id="clust8" class="cluster">
<title>cluster_external</title>
<polygon fill="#e0e0e0" stroke="black" points="769,-531.12 769,-604.12 1044,-604.12 1044,-531.12 769,-531.12"/>
<text text-anchor="middle" x="906.5" y="-590.52" font-family="Arial" font-size="12.00">External Systems</text>
</g>
<g id="clust9" class="cluster">
<title>cluster_legend</title>
<polygon fill="#fafafa" stroke="black" points="1158,-188.12 1158,-604.12 1270,-604.12 1270,-188.12 1158,-188.12"/>
<text text-anchor="middle" x="1214" y="-590.52" font-family="Arial" font-size="12.00">Legend</text>
</g>
<!-- sidebar -->
<g id="node1" class="node">
<title>sidebar</title>
<polygon fill="#90caf9" stroke="black" points="434.5,-588.62 337.5,-588.62 337.5,-525.62 434.5,-525.62 434.5,-588.62"/>
<text text-anchor="start" x="365.5" y="-576.83" font-family="Arial" font-weight="bold" font-size="11.00">Sidebar</text>
<text text-anchor="start" x="347.5" y="-565.83" font-family="Arial" font-size="11.00">• Chip Selection</text>
<text text-anchor="start" x="345.5" y="-554.83" font-family="Arial" font-size="11.00">• Presets Loader</text>
<text text-anchor="start" x="353" y="-543.83" font-family="Arial" font-size="11.00">• QA Controls</text>
<text text-anchor="start" x="363" y="-532.83" font-family="Arial" font-size="11.00">• Settings</text>
</g>
<!-- ui_layer -->
<g id="node4" class="node">
<title>ui_layer</title>
<path fill="#42a5f5" stroke="black" d="M564.5,-478.62C564.5,-478.62 451.5,-478.62 451.5,-478.62 445.5,-478.62 439.5,-472.62 439.5,-466.62 439.5,-466.62 439.5,-454.62 439.5,-454.62 439.5,-448.62 445.5,-442.62 451.5,-442.62 451.5,-442.62 564.5,-442.62 564.5,-442.62 570.5,-442.62 576.5,-448.62 576.5,-454.62 576.5,-454.62 576.5,-466.62 576.5,-466.62 576.5,-472.62 570.5,-478.62 564.5,-478.62"/>
<text text-anchor="middle" x="508" y="-457.82" font-family="Arial" font-size="11.00" fill="white">app.py (Main Application)</text>
</g>
<!-- sidebar&#45;&gt;ui_layer -->
<g id="edge1" class="edge">
<title>sidebar&#45;&gt;ui_layer</title>
<path fill="none" stroke="#1976d2" d="M421.8,-525.59C433.22,-516.11 446,-505.76 458,-496.62 463.2,-492.67 468.8,-488.58 474.3,-484.66"/>
<polygon fill="#1976d2" stroke="#1976d2" points="476.63,-487.3 482.79,-478.69 472.6,-481.58 476.63,-487.3"/>
<text text-anchor="middle" x="481" y="-499.62" font-family="Arial" font-size="10.00">User Input</text>
</g>
<!-- canvas -->
<g id="node2" class="node">
<title>canvas</title>
<polygon fill="#90caf9" stroke="black" points="563,-588.62 453,-588.62 453,-525.62 563,-525.62 563,-588.62"/>
<text text-anchor="start" x="474.5" y="-576.83" font-family="Arial" font-weight="bold" font-size="11.00">Main Canvas</text>
<text text-anchor="start" x="461" y="-565.83" font-family="Arial" font-size="11.00">• 15 Filter Windows</text>
<text text-anchor="start" x="473.5" y="-554.83" font-family="Arial" font-size="11.00">• Live Preview</text>
<text text-anchor="start" x="464.5" y="-543.83" font-family="Arial" font-size="11.00">• Visual Feedback</text>
<text text-anchor="start" x="468.5" y="-532.83" font-family="Arial" font-size="11.00">• Overlay Modes</text>
</g>
<!-- canvas&#45;&gt;ui_layer -->
<g id="edge2" class="edge">
<title>canvas&#45;&gt;ui_layer</title>
<path fill="none" stroke="#1976d2" d="M508,-525.44C508,-513.68 508,-500.35 508,-488.93"/>
<polygon fill="#1976d2" stroke="#1976d2" points="511.5,-488.67 508,-478.67 504.5,-488.67 511.5,-488.67"/>
<text text-anchor="middle" x="544.5" y="-499.62" font-family="Arial" font-size="10.00">Visual Feedback</text>
</g>
<!-- controls -->
<g id="node3" class="node">
<title>controls</title>
<polygon fill="#90caf9" stroke="black" points="715,-588.62 581,-588.62 581,-525.62 715,-525.62 715,-588.62"/>
<text text-anchor="start" x="608.5" y="-576.83" font-family="Arial" font-weight="bold" font-size="11.00">Controls Panel</text>
<text text-anchor="start" x="589" y="-565.83" font-family="Arial" font-size="11.00">• Fusion (OR/AND/Vote)</text>
<text text-anchor="start" x="608" y="-554.83" font-family="Arial" font-size="11.00">• Export Pipeline</text>
<text text-anchor="start" x="612" y="-543.83" font-family="Arial" font-size="11.00">• QA Validation</text>
<text text-anchor="start" x="614.5" y="-532.83" font-family="Arial" font-size="11.00">• Config Save</text>
</g>
<!-- controls&#45;&gt;ui_layer -->
<g id="edge3" class="edge">
<title>controls&#45;&gt;ui_layer</title>
<path fill="none" stroke="#1976d2" d="M619.61,-525.51C609.34,-515.5 597.24,-504.85 585,-496.62 577.65,-491.69 569.49,-487.13 561.31,-483.05"/>
<polygon fill="#1976d2" stroke="#1976d2" points="562.64,-479.81 552.11,-478.66 559.62,-486.13 562.64,-479.81"/>
<text text-anchor="middle" x="623.5" y="-499.62" font-family="Arial" font-size="10.00">Commands</text>
</g>
<!-- filter_engine -->
<g id="node5" class="node">
<title>filter_engine</title>
<path fill="#ffb74d" stroke="black" d="M358,-347.62C358,-347.62 212,-347.62 212,-347.62 206,-347.62 200,-341.62 200,-335.62 200,-335.62 200,-323.62 200,-323.62 200,-317.62 206,-311.62 212,-311.62 212,-311.62 358,-311.62 358,-311.62 364,-311.62 370,-317.62 370,-323.62 370,-323.62 370,-335.62 370,-335.62 370,-341.62 364,-347.62 358,-347.62"/>
<text text-anchor="start" x="217" y="-332.82" font-family="Arial" font-weight="bold" font-size="11.00">filter_engine_complete.py</text>
<text text-anchor="start" x="208" y="-321.82" font-family="Arial" font-style="italic" font-size="11.00">47+ Water Detection Algorithms</text>
</g>
<!-- ui_layer&#45;&gt;filter_engine -->
<g id="edge4" class="edge">
<title>ui_layer&#45;&gt;filter_engine</title>
<path fill="none" stroke="#f57c00" stroke-width="2" d="M439.46,-444.23C423.35,-439.2 406.62,-432.74 392,-424.62 358.89,-406.24 327.09,-376.2 306.89,-355.03"/>
<polygon fill="#f57c00" stroke="#f57c00" stroke-width="2" points="309.38,-352.58 299.99,-347.68 304.28,-357.36 309.38,-352.58"/>
<text text-anchor="middle" x="430" y="-416.62" font-family="Arial" font-size="10.00">Process Request</text>
</g>
<!-- analysis -->
<g id="node12" class="node">
<title>analysis</title>
<polygon fill="#fff59d" stroke="black" points="718,-347.62 608,-347.62 608,-311.62 718,-311.62 718,-347.62"/>
<text text-anchor="middle" x="663" y="-332.82" font-family="Arial" font-size="11.00">analysis_module.py</text>
<text text-anchor="middle" x="663" y="-320.82" font-family="Arial" font-size="11.00">Statistics &amp; Metrics</text>
</g>
<!-- ui_layer&#45;&gt;analysis -->
<g id="edge12" class="edge">
<title>ui_layer&#45;&gt;analysis</title>
<path fill="none" stroke="#fbc02d" d="M547.89,-442.58C558.37,-437.41 569.42,-431.31 579,-424.62 605.86,-405.9 630.02,-376.95 645.46,-356.13"/>
<polygon fill="#fbc02d" stroke="#fbc02d" points="648.49,-357.9 651.52,-347.75 642.82,-353.8 648.49,-357.9"/>
<text text-anchor="middle" x="612.5" y="-416.62" font-family="Arial" font-size="10.00">Analytics</text>
</g>
<!-- qa -->
<g id="node13" class="node">
<title>qa</title>
<polygon fill="#fff59d" stroke="black" points="491.5,-347.62 388.5,-347.62 388.5,-311.62 491.5,-311.62 491.5,-347.62"/>
<text text-anchor="middle" x="440" y="-332.82" font-family="Arial" font-size="11.00">qa_module.py</text>
<text text-anchor="middle" x="440" y="-320.82" font-family="Arial" font-size="11.00">Quality Assurance</text>
</g>
<!-- ui_layer&#45;&gt;qa -->
<g id="edge13" class="edge">
<title>ui_layer&#45;&gt;qa</title>
<path fill="none" stroke="#fbc02d" d="M491.24,-442.32C486.56,-436.93 481.74,-430.78 478,-424.62 465.05,-403.34 454.8,-376.85 448.23,-357.42"/>
<polygon fill="#fbc02d" stroke="#fbc02d" points="451.49,-356.12 445.05,-347.7 444.83,-358.29 451.49,-356.12"/>
<text text-anchor="middle" x="499.5" y="-416.62" font-family="Arial" font-size="10.00">Validation</text>
</g>
<!-- presets -->
<g id="node14" class="node">
<title>presets</title>
<polygon fill="#fff59d" stroke="black" points="590,-347.62 510,-347.62 510,-311.62 590,-311.62 590,-347.62"/>
<text text-anchor="middle" x="550" y="-332.82" font-family="Arial" font-size="11.00">presets.py</text>
<text text-anchor="middle" x="550" y="-320.82" font-family="Arial" font-size="11.00">Filter Presets</text>
</g>
<!-- ui_layer&#45;&gt;presets -->
<g id="edge14" class="edge">
<title>ui_layer&#45;&gt;presets</title>
<path fill="none" stroke="#fbc02d" d="M517.15,-442.47C519.91,-436.88 522.79,-430.58 525,-424.62 533.19,-402.59 539.87,-376.72 544.26,-357.71"/>
<polygon fill="#fbc02d" stroke="#fbc02d" points="547.68,-358.44 546.45,-347.91 540.85,-356.91 547.68,-358.44"/>
<text text-anchor="middle" x="551.5" y="-416.62" font-family="Arial" font-size="10.00">Load/Save</text>
</g>
<!-- filter_engine&#45;&gt;ui_layer -->
<g id="edge5" class="edge">
<title>filter_engine&#45;&gt;ui_layer</title>
<path fill="none" stroke="#f57c00" stroke-width="2" stroke-dasharray="5,2" d="M289.65,-347.84C296.39,-369.31 311,-405.52 337,-424.62 351.96,-435.62 391.79,-444.11 429.24,-449.97"/>
<polygon fill="#f57c00" stroke="#f57c00" stroke-width="2" points="428.79,-453.44 439.2,-451.48 429.84,-446.52 428.79,-453.44"/>
<text text-anchor="middle" x="354" y="-416.62" font-family="Arial" font-size="10.00">Results</text>
</g>
<!-- radiometric -->
<g id="node6" class="node">
<title>radiometric</title>
<polygon fill="#f8bbd0" stroke="black" points="482,-245.62 378,-245.62 378,-182.62 482,-182.62 482,-245.62"/>
<text text-anchor="start" x="398" y="-233.82" font-family="Arial" font-weight="bold" font-size="11.00">Radiometric</text>
<text text-anchor="start" x="415" y="-222.82" font-family="Arial" font-size="11.00">• Otsu</text>
<text text-anchor="start" x="386" y="-211.82" font-family="Arial" font-size="11.00">• Kittler&#45;Illingworth</text>
<text text-anchor="start" x="411.5" y="-200.82" font-family="Arial" font-size="11.00">• CFAR</text>
<text text-anchor="start" x="407" y="-189.82" font-family="Arial" font-size="11.00">• Triangle</text>
</g>
<!-- filter_engine&#45;&gt;radiometric -->
<g id="edge6" class="edge">
<title>filter_engine&#45;&gt;radiometric</title>
<path fill="none" stroke="#e91e63" stroke-dasharray="1,5" d="M314.76,-311.51C331.29,-301.52 351.91,-288.23 369,-274.62 377.25,-268.06 385.63,-260.54 393.43,-253.11"/>
<polygon fill="#e91e63" stroke="#e91e63" points="396.28,-255.22 401.02,-245.74 391.4,-250.2 396.28,-255.22"/>
</g>
<!-- texture -->
<g id="node7" class="node">
<title>texture</title>
<polygon fill="#f8bbd0" stroke="black" points="600,-245.62 500,-245.62 500,-182.62 600,-182.62 600,-245.62"/>
<text text-anchor="start" x="530" y="-233.82" font-family="Arial" font-weight="bold" font-size="11.00">Texture</text>
<text text-anchor="start" x="510.5" y="-222.82" font-family="Arial" font-size="11.00">• GLCM Entropy</text>
<text text-anchor="start" x="508" y="-211.82" font-family="Arial" font-size="11.00">• GLCM Variance</text>
<text text-anchor="start" x="519.5" y="-200.82" font-family="Arial" font-size="11.00">• Touzi Edge</text>
<text text-anchor="start" x="527" y="-189.82" font-family="Arial" font-size="11.00">• Haralick</text>
</g>
<!-- filter_engine&#45;&gt;texture -->
<g id="edge7" class="edge">
<title>filter_engine&#45;&gt;texture</title>
<path fill="none" stroke="#e91e63" stroke-dasharray="1,5" d="M346.63,-311.5C356.45,-308.83 366.49,-306.13 376,-303.62 426.97,-290.2 445.21,-300.74 491,-274.62 500.87,-269 510.21,-261.27 518.42,-253.24"/>
<polygon fill="#e91e63" stroke="#e91e63" points="521.16,-255.44 525.63,-245.83 516.14,-250.56 521.16,-255.44"/>
</g>
<!-- morphological -->
<g id="node8" class="node">
<title>morphological</title>
<polygon fill="#f8bbd0" stroke="black" points="717.5,-245.62 618.5,-245.62 618.5,-182.62 717.5,-182.62 717.5,-245.62"/>
<text text-anchor="start" x="630" y="-233.82" font-family="Arial" font-weight="bold" font-size="11.00">Morphological</text>
<text text-anchor="start" x="626.5" y="-222.82" font-family="Arial" font-size="11.00">• Active Contours</text>
<text text-anchor="start" x="645" y="-211.82" font-family="Arial" font-size="11.00">• Top&#45;Hat</text>
<text text-anchor="start" x="637" y="-200.82" font-family="Arial" font-size="11.00">• Area Filters</text>
<text text-anchor="start" x="638" y="-189.82" font-family="Arial" font-size="11.00">• Watershed</text>
</g>
<!-- filter_engine&#45;&gt;morphological -->
<g id="edge8" class="edge">
<title>filter_engine&#45;&gt;morphological</title>
<path fill="none" stroke="#e91e63" stroke-dasharray="1,5" d="M341.97,-311.57C353.18,-308.61 364.91,-305.8 376,-303.62 478.41,-283.58 515.41,-320.79 609,-274.62 619.6,-269.4 629.41,-261.5 637.86,-253.15"/>
<polygon fill="#e91e63" stroke="#e91e63" points="640.55,-255.4 644.93,-245.75 635.49,-250.57 640.55,-255.4"/>
</g>
<!-- geomorphic -->
<g id="node9" class="node">
<title>geomorphic</title>
<polygon fill="#f8bbd0" stroke="black" points="105.5,-245.62 24.5,-245.62 24.5,-182.62 105.5,-182.62 105.5,-245.62"/>
<text text-anchor="start" x="32.5" y="-233.82" font-family="Arial" font-weight="bold" font-size="11.00">Geomorphic</text>
<text text-anchor="start" x="45" y="-222.82" font-family="Arial" font-size="11.00">• HAND</text>
<text text-anchor="start" x="51" y="-211.82" font-family="Arial" font-size="11.00">• TWI</text>
<text text-anchor="start" x="47.5" y="-200.82" font-family="Arial" font-size="11.00">• Slope</text>
<text text-anchor="start" x="37.5" y="-189.82" font-family="Arial" font-size="11.00">• Curvature</text>
</g>
<!-- filter_engine&#45;&gt;geomorphic -->
<g id="edge9" class="edge">
<title>filter_engine&#45;&gt;geomorphic</title>
<path fill="none" stroke="#e91e63" stroke-dasharray="1,5" d="M199.92,-311.72C171.36,-303.49 140.35,-291.59 115,-274.62 106.51,-268.94 98.66,-261.41 91.82,-253.63"/>
<polygon fill="#e91e63" stroke="#e91e63" points="94.42,-251.27 85.34,-245.81 89.03,-255.74 94.42,-251.27"/>
</g>
<!-- ml_dl -->
<g id="node10" class="node">
<title>ml_dl</title>
<polygon fill="#f8bbd0" stroke="black" points="222,-245.62 124,-245.62 124,-182.62 222,-182.62 222,-245.62"/>
<text text-anchor="start" x="156" y="-233.82" font-family="Arial" font-weight="bold" font-size="11.00">ML/DL</text>
<text text-anchor="start" x="132" y="-222.82" font-family="Arial" font-size="11.00">• Attention U&#45;Net</text>
<text text-anchor="start" x="145.5" y="-211.82" font-family="Arial" font-size="11.00">• LightGBM</text>
<text text-anchor="start" x="132" y="-200.82" font-family="Arial" font-size="11.00">• Random Forest</text>
<text text-anchor="start" x="157.5" y="-189.82" font-family="Arial" font-size="11.00">• SVM</text>
</g>
<!-- filter_engine&#45;&gt;ml_dl -->
<g id="edge10" class="edge">
<title>filter_engine&#45;&gt;ml_dl</title>
<path fill="none" stroke="#e91e63" stroke-dasharray="1,5" d="M267.99,-311.39C252.8,-295.99 230,-272.89 210.55,-253.18"/>
<polygon fill="#e91e63" stroke="#e91e63" points="212.8,-250.47 203.28,-245.81 207.81,-255.39 212.8,-250.47"/>
</g>
<!-- custom -->
<g id="node11" class="node">
<title>custom</title>
<polygon fill="#f8bbd0" stroke="black" points="359.5,-245.62 240.5,-245.62 240.5,-182.62 359.5,-182.62 359.5,-245.62"/>
<text text-anchor="start" x="279" y="-233.82" font-family="Arial" font-weight="bold" font-size="11.00">Custom</text>
<text text-anchor="start" x="256.5" y="-222.82" font-family="Arial" font-size="11.00">• Equation Engine</text>
<text text-anchor="start" x="248.5" y="-211.82" font-family="Arial" font-size="11.00">• Python Expressions</text>
<text text-anchor="start" x="264" y="-200.82" font-family="Arial" font-size="11.00">• User&#45;Defined</text>
<text text-anchor="start" x="260.5" y="-189.82" font-family="Arial" font-size="11.00">• Novel Methods</text>
</g>
<!-- filter_engine&#45;&gt;custom -->
<g id="edge11" class="edge">
<title>filter_engine&#45;&gt;custom</title>
<path fill="none" stroke="#e91e63" stroke-dasharray="1,5" d="M287.28,-311.39C289.22,-296.67 292.1,-274.91 294.62,-255.8"/>
<polygon fill="#e91e63" stroke="#e91e63" points="298.1,-256.18 295.94,-245.81 291.16,-255.27 298.1,-256.18"/>
</g>
<!-- config -->
<g id="node15" class="node">
<title>config</title>
<path fill="#aed581" stroke="black" d="M978.5,-232.12C978.5,-232.12 855.5,-232.12 855.5,-232.12 849.5,-232.12 843.5,-226.12 843.5,-220.12 843.5,-220.12 843.5,-208.12 843.5,-208.12 843.5,-202.12 849.5,-196.12 855.5,-196.12 855.5,-196.12 978.5,-196.12 978.5,-196.12 984.5,-196.12 990.5,-202.12 990.5,-208.12 990.5,-208.12 990.5,-220.12 990.5,-220.12 990.5,-226.12 984.5,-232.12 978.5,-232.12"/>
<text text-anchor="start" x="892.5" y="-217.32" font-family="Arial" font-weight="bold" font-size="11.00">config.py</text>
<text text-anchor="start" x="851.5" y="-206.32" font-family="Arial" font-style="italic" font-size="11.00">Configuration Management</text>
</g>
<!-- filter_engine&#45;&gt;config -->
<g id="edge15" class="edge">
<title>filter_engine&#45;&gt;config</title>
<path fill="none" stroke="#689f38" stroke-width="2" d="M339.43,-311.59C351.37,-308.44 364.03,-305.54 376,-303.62 464.76,-289.41 488.45,-301.43 578,-293.62 645.82,-287.72 663.5,-289.23 730,-274.62 775.21,-264.7 825.1,-248.55 861.97,-235.58"/>
<polygon fill="#689f38" stroke="#689f38" stroke-width="2" points="863.28,-238.83 871.53,-232.18 860.94,-232.23 863.28,-238.83"/>
<text text-anchor="middle" x="718" y="-285.62" font-family="Arial" font-size="10.00">Configuration</text>
</g>
<!-- models -->
<g id="node18" class="node">
<title>models</title>
<path fill="#c5e1a5" stroke="black" d="M874,-96.36C874,-99.92 848,-102.81 816,-102.81 784,-102.81 758,-99.92 758,-96.36 758,-96.36 758,-38.27 758,-38.27 758,-34.7 784,-31.81 816,-31.81 848,-31.81 874,-34.7 874,-38.27 874,-38.27 874,-96.36 874,-96.36"/>
<path fill="none" stroke="black" d="M874,-96.36C874,-92.8 848,-89.9 816,-89.9 784,-89.9 758,-92.8 758,-96.36"/>
<text text-anchor="start" x="797" y="-81.51" font-family="Arial" font-weight="bold" font-size="11.00">Models</text>
<text text-anchor="start" x="775" y="-70.51" font-family="Arial" font-size="11.00">• Attention U&#45;Net</text>
<text text-anchor="start" x="788.5" y="-59.51" font-family="Arial" font-size="11.00">• LightGBM</text>
<text text-anchor="start" x="766" y="-48.51" font-family="Arial" font-size="11.00">• Pretrained Weights</text>
</g>
<!-- ml_dl&#45;&gt;models -->
<g id="edge19" class="edge">
<title>ml_dl&#45;&gt;models</title>
<path fill="none" stroke="#7b1fa2" stroke-dasharray="5,2" d="M206.05,-182.44C214.06,-176.37 222.94,-170.64 232,-166.62 406.56,-89.27 635.17,-72.41 747.56,-68.98"/>
<polygon fill="#7b1fa2" stroke="#7b1fa2" points="747.85,-72.48 757.74,-68.7 747.65,-65.48 747.85,-72.48"/>
<text text-anchor="middle" x="302.5" y="-150.62" font-family="Arial" font-size="10.00">Use Models</text>
</g>
<!-- features -->
<g id="node16" class="node">
<title>features</title>
<path fill="#c5e1a5" stroke="black" d="M1134,-102.6C1134,-106.92 1108,-110.44 1076,-110.44 1044,-110.44 1018,-106.92 1018,-102.6 1018,-102.6 1018,-32.03 1018,-32.03 1018,-27.7 1044,-24.19 1076,-24.19 1108,-24.19 1134,-27.7 1134,-32.03 1134,-32.03 1134,-102.6 1134,-102.6"/>
<path fill="none" stroke="black" d="M1134,-102.6C1134,-98.27 1108,-94.76 1076,-94.76 1044,-94.76 1018,-98.27 1018,-102.6"/>
<text text-anchor="start" x="1053" y="-87.01" font-family="Arial" font-weight="bold" font-size="11.00">Features</text>
<text text-anchor="start" x="1044" y="-76.01" font-family="Arial" font-size="11.00">7&#45;band SAR:</text>
<text text-anchor="start" x="1026" y="-65.01" font-family="Arial" font-size="11.00">• VV/VH Polarization</text>
<text text-anchor="start" x="1035" y="-54.01" font-family="Arial" font-size="11.00">• GLCM Textures</text>
<text text-anchor="start" x="1035" y="-43.01" font-family="Arial" font-size="11.00">• Derived Indices</text>
</g>
<!-- config&#45;&gt;features -->
<g id="edge16" class="edge">
<title>config&#45;&gt;features</title>
<path fill="none" stroke="#558b2f" d="M933.42,-195.89C947.67,-181.64 969.35,-161.54 991,-147.62 998.36,-142.89 1001.86,-144.69 1009,-139.62 1017.91,-133.3 1026.57,-125.65 1034.54,-117.75"/>
<polygon fill="#558b2f" stroke="#558b2f" points="1037.19,-120.05 1041.66,-110.44 1032.18,-115.16 1037.19,-120.05"/>
<text text-anchor="middle" x="1002" y="-150.62" font-family="Arial" font-size="10.00">Load</text>
</g>
<!-- labels -->
<g id="node17" class="node">
<title>labels</title>
<path fill="#c5e1a5" stroke="black" d="M999.5,-96.36C999.5,-99.92 975.52,-102.81 946,-102.81 916.48,-102.81 892.5,-99.92 892.5,-96.36 892.5,-96.36 892.5,-38.27 892.5,-38.27 892.5,-34.7 916.48,-31.81 946,-31.81 975.52,-31.81 999.5,-34.7 999.5,-38.27 999.5,-38.27 999.5,-96.36 999.5,-96.36"/>
<path fill="none" stroke="black" d="M999.5,-96.36C999.5,-92.8 975.52,-89.9 946,-89.9 916.48,-89.9 892.5,-92.8 892.5,-96.36"/>
<text text-anchor="start" x="910.5" y="-81.51" font-family="Arial" font-weight="bold" font-size="11.00">Ground Truth</text>
<text text-anchor="start" x="900.5" y="-70.51" font-family="Arial" font-size="11.00">• JRC Water Layer</text>
<text text-anchor="start" x="907.5" y="-59.51" font-family="Arial" font-size="11.00">• Manual Labels</text>
<text text-anchor="start" x="906" y="-48.51" font-family="Arial" font-size="11.00">• Validation Data</text>
</g>
<!-- config&#45;&gt;labels -->
<g id="edge17" class="edge">
<title>config&#45;&gt;labels</title>
<path fill="none" stroke="#558b2f" d="M920.44,-195.94C924.52,-175.59 931.46,-140.91 937.08,-112.83"/>
<polygon fill="#558b2f" stroke="#558b2f" points="940.56,-113.32 939.09,-102.82 933.69,-111.94 940.56,-113.32"/>
<text text-anchor="middle" x="940" y="-150.62" font-family="Arial" font-size="10.00">Load</text>
</g>
<!-- config&#45;&gt;models -->
<g id="edge18" class="edge">
<title>config&#45;&gt;models</title>
<path fill="none" stroke="#558b2f" d="M905.02,-195.94C890.57,-175.24 865.78,-139.69 846.02,-111.36"/>
<polygon fill="#558b2f" stroke="#558b2f" points="848.66,-109.02 840.07,-102.82 842.92,-113.03 848.66,-109.02"/>
<text text-anchor="middle" x="889" y="-150.62" font-family="Arial" font-size="10.00">Load</text>
</g>
<!-- sentinel -->
<g id="node19" class="node">
<title>sentinel</title>
<polygon fill="#bdbdbd" stroke="black" points="1036.5,-575.12 943.5,-575.12 939.5,-571.12 939.5,-539.12 1032.5,-539.12 1036.5,-543.12 1036.5,-575.12"/>
<polyline fill="none" stroke="black" points="1032.5,-571.12 939.5,-571.12 "/>
<polyline fill="none" stroke="black" points="1032.5,-571.12 1032.5,-539.12 "/>
<polyline fill="none" stroke="black" points="1032.5,-571.12 1036.5,-575.12 "/>
<text text-anchor="middle" x="988" y="-560.33" font-family="Arial" font-size="11.00">Sentinel&#45;1 SAR</text>
<text text-anchor="middle" x="988" y="-548.33" font-family="Arial" font-size="11.00">ESA/Copernicus</text>
</g>
<!-- sentinel&#45;&gt;features -->
<g id="edge20" class="edge">
<title>sentinel&#45;&gt;features</title>
<path fill="none" stroke="#424242" d="M999.91,-538.89C1011.38,-520.58 1027,-490.38 1027,-461.62 1027,-461.62 1027,-461.62 1027,-213.12 1027,-180.95 1037.98,-146.78 1049.55,-119.72"/>
<polygon fill="#424242" stroke="#424242" points="1052.8,-121.02 1053.65,-110.46 1046.4,-118.19 1052.8,-121.02"/>
<text text-anchor="middle" x="1050" y="-327.12" font-family="Arial" font-size="10.00">SAR Data</text>
</g>
<!-- docker -->
<g id="node20" class="node">
<title>docker</title>
<polygon fill="#bdbdbd" stroke="black" points="921,-575.12 781,-575.12 777,-571.12 777,-539.12 917,-539.12 921,-543.12 921,-575.12"/>
<polyline fill="none" stroke="black" points="917,-571.12 777,-571.12 "/>
<polyline fill="none" stroke="black" points="917,-571.12 917,-539.12 "/>
<polyline fill="none" stroke="black" points="917,-571.12 921,-575.12 "/>
<text text-anchor="middle" x="849" y="-560.33" font-family="Arial" font-size="11.00">Docker Runtime</text>
<text text-anchor="middle" x="849" y="-548.33" font-family="Arial" font-size="11.00">Containerized Deployment</text>
</g>
<!-- docker&#45;&gt;ui_layer -->
<g id="edge21" class="edge">
<title>docker&#45;&gt;ui_layer</title>
<path fill="none" stroke="#424242" stroke-dasharray="5,2" d="M796.26,-539.11C774.81,-532.29 749.77,-524.45 727,-517.62 694.25,-507.81 686.07,-505.3 653,-496.62 631.5,-490.98 608.11,-485.19 586.52,-479.98"/>
<polygon fill="#424242" stroke="#424242" points="587.28,-476.56 576.74,-477.63 585.64,-483.37 587.28,-476.56"/>
<text text-anchor="middle" x="710.5" y="-499.62" font-family="Arial" font-size="10.00">Runtime</text>
</g>
<!-- legend_ui -->
<g id="node21" class="node">
<title>legend_ui</title>
<polygon fill="#90caf9" stroke="black" points="1260,-575.12 1168,-575.12 1168,-539.12 1260,-539.12 1260,-575.12"/>
<text text-anchor="middle" x="1214" y="-554.33" font-family="Arial" font-size="11.00">UI Components</text>
</g>
<!-- legend_core -->
<g id="node22" class="node">
<title>legend_core</title>
<polygon fill="#ffb74d" stroke="black" points="1262.5,-478.62 1165.5,-478.62 1165.5,-442.62 1262.5,-442.62 1262.5,-478.62"/>
<text text-anchor="middle" x="1214" y="-457.82" font-family="Arial" font-size="11.00">Core Processing</text>
</g>
<!-- legend_ui&#45;&gt;legend_core -->
<!-- legend_algo -->
<g id="node23" class="node">
<title>legend_algo</title>
<polygon fill="#f8bbd0" stroke="black" points="1248,-347.62 1180,-347.62 1180,-311.62 1248,-311.62 1248,-347.62"/>
<text text-anchor="middle" x="1214" y="-326.82" font-family="Arial" font-size="11.00">Algorithms</text>
</g>
<!-- legend_core&#45;&gt;legend_algo -->
<!-- legend_data -->
<g id="node24" class="node">
<title>legend_data</title>
<polygon fill="#c5e1a5" stroke="black" points="1251,-232.12 1177,-232.12 1177,-196.12 1251,-196.12 1251,-232.12"/>
<text text-anchor="middle" x="1214" y="-211.32" font-family="Arial" font-size="11.00">Data/Config</text>
</g>
<!-- legend_algo&#45;&gt;legend_data -->
</g>
</svg>
